inDegrees=yes
name=ik_S47_A01_T01
DataType=double
version=3
OpenSimVersion=4.3-2021-08-27-4bc7ad9
endheader
time	pelvis_tilt	pelvis_list	pelvis_rotation	pelvis_tx	pelvis_ty	pelvis_tz	hip_flexion_r	hip_adduction_r	hip_rotation_r	knee_angle_r	knee_angle_r_beta	ankle_angle_r	subtalar_angle_r	mtp_angle_r	hip_flexion_l	hip_adduction_l	hip_rotation_l	knee_angle_l	knee_angle_l_beta	ankle_angle_l	subtalar_angle_l	mtp_angle_l	lumbar_extension	lumbar_bending	lumbar_rotation	arm_flex_r	arm_add_r	arm_rot_r	elbow_flex_r	pro_sup_r	wrist_flex_r	wrist_dev_r	arm_flex_l	arm_add_l	arm_rot_l	elbow_flex_l	pro_sup_l	wrist_flex_l	wrist_dev_l
0	0	0	0	0	0.9399999999999999	0	0	0	0	0	0	0	0	0	0	0	0	0	0	0	0	0	0	0	0	0	0	0	0	89.99999999963507	0	0	0	0	0	0	89.99999999869995	0	0
0.02	-0.4460532801973503	-1.594526177789378	-91.65208341846234	0	0.9399999999999999	0	1.352034318523075	-5.318532725521909	-12.23708101075039	8.89510546474499	0.1552488776719405	0	0	0	-1.382974880152928	-5.206822732446351	-7.009229770138383	5.301552987682115	0.09252955510399528	0	0	0	0	0	0	2.060617699941536	-2.060617699941536	0.3668421099785055	10.15733838887574	89.63315791120962	0	0	2.060617699941536	-2.060617699941536	0.3668421099785055	10.15733838887574	89.63315791034336	0	0
0.04	-0.4244111144974975	-1.581357075245955	-91.51917809682109	0	0.9399999999999999	0	1.344746139723599	-5.307912091918275	-12.22688759987078	8.901031549706646	0.1553523073662743	0	0	0	-1.385049813425728	-5.230534234300105	-7.007495706070969	5.304668194220551	0.09258392571497065	0	0	0	0	0	0	2.06100359042076	-2.06100359042076	0.366915950576199	10.16018017059931	89.63308407061633	0	0	2.06100359042076	-2.06100359042076	0.366915950576199	10.16018017059931	89.63308406975008	0	0
0.06	-0.4613392652941322	-1.582592048162888	-91.33791600212994	0	0.9399999999999999	0	1.311625553912559	-5.25132280330456	-12.34338009133009	9.003722031402456	0.1571445943823251	0	0	0	-1.374967565966688	-5.312493880393475	-6.922284203390375	5.389814432699779	0.09407000792212146	0	0	0	0	0	0	2.066088420500686	-2.066088420500686	0.3679107264834178	10.20180928841914	89.63208929476865	0	0	2.066088420500686	-2.066088420500686	0.3679107264834178	10.20180928841914	89.63208929390252	0	0
0.08	-0.4350432498316491	-1.568816627194666	-91.24501663807192	0	0.9399999999999999	0	1.302736874343151	-5.240900435486581	-12.34996088420474	9.01381446335127	0.1573207405493654	0	0	0	-1.377636340714398	-5.320998444689285	-6.923480737776799	5.3972023125808	0.09419895075078714	0	0	0	0	0	0	2.066495567928849	-2.066495567928849	0.3679886319191572	10.20480163427011	89.63201138933753	0	0	2.066495567928849	-2.066495567928849	0.3679886319191572	10.20480163427011	89.63201138847144	0	0
0.1	-0.4106281653825101	-1.573501131079155	-91.03374240985164	0	0.9399999999999999	0	1.271848235088003	-5.259912833563811	-12.48914815586117	9.101564019084194	0.1588522592140672	0	0	0	-1.374041504188912	-5.322473083511463	-6.754755396064998	5.485989408227512	0.09574857790310538	0	0	0	0	0	0	2.071448508971427	-2.071448508971427	0.3689565654442349	10.24505565624988	89.63104345587038	0	0	2.071448508971427	-2.071448508971427	0.3689565654442349	10.24505565624988	89.63104345500444	0	0
0.12	-0.4050547266278707	-1.579315274730848	-90.97512648052812	0	0.9399999999999999	0	1.285852602752265	-5.246749311976559	-12.46155658049298	9.271604605256101	0.1618200273047881	0	0	0	-1.369991765933467	-5.341360367688956	-6.683277569643112	5.554352699365825	0.0969417424209684	0	0	0	0	0	0	3.28439151185932	-3.28439151185932	0.6010884817950043	16.36272100395682	89.39891155331523	0	0	3.28439151185932	-3.28439151185932	0.6010884817950043	16.36272100395682	89.39891155249288	0	0
0.14	-0.406195537092097	-1.59753464251275	-90.90437851642119	0	0.9399999999999999	0	1.256280099909912	-5.218874614238185	-12.45303042169108	9.373991053026916	0.16360700792781	0	0	0	-1.412734660032043	-5.337703964159092	-6.56575012183469	5.554779556571856	0.0969491924846495	0	0	0	0	0	0	3.880974429392974	-3.880974429392974	0.7107703394009559	18.46007620729342	89.28922970215714	0	0	3.880974429392974	-3.880974429392974	0.7107703394009559	18.46007620729342	89.28922970135534	0	0
0.16	-0.4278828705217707	-1.586305702810024	-90.8709539473702	0	0.9399999999999999	0	1.285389313005918	-5.188791143348613	-12.42025974256817	9.39297190863169	0.163938286352959	0	0	0	-1.390608886017956	-5.368771136110534	-6.532059560613398	5.567775812277764	0.09717601993714871	0	0	0	0	0	0	4.398200484635823	-4.398200484635823	0.805568409290395	20.35305309650118	89.1944316378375	0	0	4.398200484635823	-4.398200484635823	0.805568409290395	20.35305309650118	89.19443163705344	0	0
0.18	-0.4293115331707691	-1.588413146748728	-90.85670789221999	0	0.9399999999999999	0	1.259738725691276	-5.162408167772811	-12.43024425721766	9.467869542067636	0.165245496658368	0	0	0	-1.409675418835975	-5.365419335935488	-6.501295154003179	5.579380926035656	0.09737856738229241	0	0	0	0	0	0	4.445617486984879	-4.445617486984879	0.8140893254408743	20.49793893043104	89.18591072218508	0	0	4.445617486984879	-4.445617486984879	0.8140893254408743	20.49793893043104	89.18591072140266	0	0
0.2	-0.4282576456054626	-1.598746100361202	-90.8619966416755	0	0.9399999999999999	0	1.255502396383331	-5.170116062511069	-12.47257947875893	9.576736933977555	0.1671455910952551	0	0	0	-1.426092724485932	-5.375979269253902	-6.496537387465821	5.652689268745313	0.09865803933175631	0	0	0	0	0	0	4.905829609600251	-4.905829609600251	0.8977110736242083	22.13195696838015	89.10228897890472	0	0	4.905829609600251	-4.905829609600251	0.8977110736242083	22.13195696838015	89.10228897813798	0	0
0.22	-0.4411215194038161	-1.607699299043219	-90.87846639183451	0	0.9399999999999999	0	1.266531770800004	-5.165248393791495	-12.51349623560468	9.812569835013308	0.171261651702859	0	0	0	-1.40410573639307	-5.409768240457146	-6.444487449372653	5.797423473085182	0.1011841277377413	0	0	0	0	0	0	5.34852425387493	-5.34852425387493	0.9779693332629894	23.73936435270979	89.02203072396982	0	0	5.34852425387493	-5.34852425387493	0.9779693332629894	23.73936435270979	89.02203072321814	0	0
0.24	-0.458418085363314	-1.608069524297821	-90.96167277013868	0	0.9399999999999999	0	1.248035032703076	-5.134614323836791	-12.44043345040538	9.766058483479508	0.1704498754790417	0	0	0	-1.461806779808095	-5.418195941786586	-6.512658870424324	5.743846039370216	0.1002490251146461	0	0	0	0	0	0	5.479784302872559	-5.479784302872557	1.001043075859865	24.08555223715818	88.99895698271428	0	0	5.479784302872559	-5.479784302872557	1.001043075859865	24.08555223715818	88.99895698196691	0	0
0.26	-0.4561626562934821	-1.582034073439032	-90.99793435700039	0	0.9399999999999999	0	1.205868717726754	-5.137594172306615	-12.51538448350888	9.766096592964349	0.1704505406150284	0	0	0	-1.449643852690134	-5.409102449669926	-6.419796357432723	5.725631796165751	0.09993112659996919	0	0	0	0	0	0	5.481671783066986	-5.481671783066985	1.001395046183863	24.09457089426439	88.99860501241105	0	0	5.481671783066986	-5.481671783066985	1.001395046183863	24.09457089426439	88.99860501166376	0	0
0.28	-0.4591537707852254	-1.548104067301812	-91.06107127451844	0	0.9399999999999999	0	1.169567824380447	-5.14014362962393	-12.54415903893111	9.768434769176185	0.1704913494884167	0	0	0	-1.443906382199307	-5.414139642695839	-6.444313387509566	5.734082653005185	0.100078621876432	0	0	0	0	0	0	5.482132921268091	-5.48213292126809	1.001479314473889	24.09664381480916	88.99852074412598	0	0	5.482132921268091	-5.48213292126809	1.001479314473889	24.09664381480916	88.99852074337871	0	0
0.3	-0.4573020896760568	-1.518759502383477	-91.12977382623106	0	0.9399999999999999	0	1.191582889408135	-5.13031782884878	-12.49825545527487	9.76724981281134	0.1704706680983577	0	0	0	-1.461375248244898	-5.386715262339346	-6.372898017660517	5.744693392862631	0.100263814223017	0	0	0	0	0	0	5.482744721699909	-5.482744721699907	1.001591790622705	24.09944393682273	88.99840826798379	0	0	5.482744721699909	-5.482744721699907	1.001591790622705	24.09944393682273	88.99840826723651	0	0
0.32	-0.445134233503337	-1.437177481536287	-91.17785420322366	0	0.9399999999999999	0	1.156294148993777	-5.168576682293554	-12.57595353035719	9.744977666819022	0.1700819458193069	0	0	0	-1.391016855227103	-5.374008653468715	-6.429894333301076	5.75577817877422	0.1004572802340529	0	0	0	0	0	0	5.483889103197818	-5.483889103197816	1.001803208017666	24.1047618724666	88.99819685060129	0	0	5.483889103197818	-5.483889103197816	1.001803208017666	24.1047618724666	88.99819684985408	0	0
0.34	-0.4290544102818603	-1.320519857403614	-91.22307212135328	0	0.9399999999999999	0	1.277581556948758	-5.173396068961679	-12.53346582088238	9.632063623474435	0.1681112239912043	0	0	0	-1.455610683037037	-5.371641797353795	-6.357820142516759	5.628666187973092	0.09823875747580851	0	0	0	0	0	0	5.490327352591454	-5.490327352591452	1.003004631746752	24.13558308325981	88.99699542694319	0	0	5.490327352591454	-5.490327352591452	1.003004631746752	24.13558308325981	88.99699542619618	0	0
0.36	-0.4578959466702792	-1.248973497299873	-91.26501733932344	0	0.9399999999999999	0	1.100339363279516	-5.162471775289003	-12.63180282484624	9.414764526182726	0.1643186392818524	0	0	0	-1.49657013485944	-5.41083897518491	-6.36738054570902	5.527791870482576	0.09647816850489691	0	0	0	0	0	0	5.496286356986925	-5.496286356986924	1.00411716436257	24.16413127380656	88.99588289439309	0	0	5.496286356986925	-5.496286356986924	1.00411716436257	24.16413127380656	88.99588289364628	0	0
